HIERARCHY
ROOT Hips
{
	OFFSET	0.00	0.00	0.00
	CHANNELS 6 Xposition Yposition Zposition Zrotation Xrotation Yrotation
	JOINT LeftUpLeg
	{
		OFFSET	 0.126116	-0.065224	 0.014019
		CHANNELS 3 Zrotation Xrotation Yrotation
		JOINT LeftLeg
		{
			OFFSET	 0.000000	 0.569914	 0.000000
			CHANNELS 3 Zrotation Xrotation Yrotation
			JOINT LeftFoot
			{
				OFFSET	 0.000000	 0.544423	 0.000000
				CHANNELS 3 Zrotation Xrotation Yrotation
				JOINT LeftToeBase
				{
					OFFSET	 0.000000	 0.207117	 0.000000
					CHANNELS 3 Zrotation Xrotation Yrotation
					End Site
					{
						OFFSET	 0.000000	 0.207117	 0.000000
					}
				}
			}
		}
	}
	JOINT RightUpLeg
	{
		OFFSET	-0.124023	-0.065224	 0.008373
		CHANNELS 3 Zrotation Xrotation Yrotation
		JOINT RightLeg
		{
			OFFSET	 0.000000	 0.570047	 0.000000
			CHANNELS 3 Zrotation Xrotation Yrotation
			JOINT RightFoot
			{
				OFFSET	 0.000000	 0.544354	 0.000000
				CHANNELS 3 Zrotation Xrotation Yrotation
				JOINT RightToeBase
				{
					OFFSET	 0.000000	 0.207540	 0.000000
					CHANNELS 3 Zrotation Xrotation Yrotation
					End Site
					{
						OFFSET	 0.000000	 0.207540	 0.000000
					}
				}
			}
		}
	}
	JOINT Spine
	{
		OFFSET	 0.000184	 0.117403	 0.007763
		CHANNELS 3 Zrotation Xrotation Yrotation
		JOINT Spine1
		{
			OFFSET	 0.000000	 0.137269	 0.000000
			CHANNELS 3 Zrotation Xrotation Yrotation
			JOINT Spine2
			{
				OFFSET	 0.000000	 0.156879	 0.000000
				CHANNELS 3 Zrotation Xrotation Yrotation
				JOINT LeftShoulder
				{
					OFFSET	 0.080501	 0.160143	 0.002496
					CHANNELS 3 Zrotation Xrotation Yrotation
					JOINT LeftArm
					{
						OFFSET	 0.000000	 0.164363	 0.000000
						CHANNELS 3 Zrotation Xrotation Yrotation
						JOINT LeftForeArm
						{
							OFFSET	 0.000000	 0.364576	 0.000000
							CHANNELS 3 Zrotation Xrotation Yrotation
							JOINT LeftHand
							{
								OFFSET	 0.000000	 0.360812	 0.000000
								CHANNELS 3 Zrotation Xrotation Yrotation
								JOINT LeftHandIndex1
								{
									OFFSET	 0.000000	 0.086006	 0.000000
									CHANNELS 3 Zrotation Xrotation Yrotation
									JOINT LeftHandIndex2
									{
										OFFSET	 0.000000	 0.047237	 0.000000
										CHANNELS 3 Zrotation Xrotation Yrotation
										JOINT LeftHandIndex3
										{
											OFFSET	-0.004284	 0.038165	 0.000551
											CHANNELS 3 Zrotation Xrotation Yrotation
											End Site
											{
												OFFSET	-0.004284	 0.038165	 0.000551
											}
										}
									}
								}
							}
						}
					}
				}
				JOINT Neck
				{
					OFFSET	 0.000000	 0.176489	 0.000000
					CHANNELS 3 Zrotation Xrotation Yrotation
					JOINT Head
					{
						OFFSET	 0.000000	 0.077941	 0.001747
						CHANNELS 3 Zrotation Xrotation Yrotation
						End Site
						{
							OFFSET	 0.000000	 0.077941	 0.001747
						}
					}
				}
				JOINT RightShoulder
				{
					OFFSET	-0.080363	 0.159706	-0.000306
					CHANNELS 3 Zrotation Xrotation Yrotation
					JOINT RightArm
					{
						OFFSET	 0.000000	 0.164196	 0.000000
						CHANNELS 3 Zrotation Xrotation Yrotation
						JOINT RightForeArm
						{
							OFFSET	 0.000000	 0.365611	 0.000000
							CHANNELS 3 Zrotation Xrotation Yrotation
							JOINT RightHand
							{
								OFFSET	 0.000000	 0.360648	 0.000000
								CHANNELS 3 Zrotation Xrotation Yrotation
								JOINT RightHandIndex1
								{
									OFFSET	 0.000000	 0.069977	 0.000000
									CHANNELS 3 Zrotation Xrotation Yrotation
									JOINT RightHandIndex2
									{
										OFFSET	 0.000000	 0.052305	 0.000000
										CHANNELS 3 Zrotation Xrotation Yrotation
										JOINT RightHandIndex3
										{
											OFFSET	 0.009002	 0.042196	 0.000782
											CHANNELS 3 Zrotation Xrotation Yrotation
											End Site
											{
												OFFSET	 0.009002	 0.042196	 0.000782
											}
										}
									}
								}
							}
						}
					}
				}
			}
		}
	}
}
MOTION
Frames:    11
Frame Time: 0.03333334
 0.000426	 1.271134	 0.063367	 0.347751	-0.005986	 179.993700	 177.503300	 1.617608	 17.828840	 2.826113	-13.101570	 0.067153	-2.148376	 72.170880	 4.056345	 1.292262	 28.425850	-2.713146	-177.161700	 1.414946	-17.786730	-2.516106	-12.053360	 0.000565	 2.310131	 71.430690	-4.259810	-1.288183	 28.361890	 2.710176	-0.115776	 2.836483	-8.722131	 1.948570	 3.390256	-4.506362	-1.837360	-4.270154	 13.146890	-101.478000	 1.740676	 90.353400	-2.284824	 61.750430	 5.027089	 7.825916	 15.886950	 0.348882	 1.099639	-15.361610	-30.715490	-6.580301	 5.266122	 0.000000	 0.000000	 0.000000	 0.000000	 0.000000	 0.000000	 0.000000	 0.089846	-3.783161	 0.005928	-0.024264	 0.852140	 3.261970	 101.796200	-0.213317	-89.955460	-4.168069	 66.178800	-4.525897	-6.671947	 10.093940	 1.875973	-17.914570	-0.445290	-27.880590	 15.208500	 5.323790	 0.000000	 0.000000	 0.000000	 0.000000	 0.000000	 0.000000	 0.000000
 0.000395	 1.271146	 0.063366	 0.359844	-0.006447	 179.993000	 177.511200	 1.623320	 17.829680	 2.828945	-13.114210	 0.067787	-2.144958	 72.177270	 4.052024	 1.292262	 28.425850	-2.713146	-177.159300	 1.400326	-17.785740	-2.508522	-12.018160	 0.002148	 2.309814	 71.412770	-4.262652	-1.288183	 28.361890	 2.710176	-0.092039	 2.696056	-8.679725	 1.919344	 3.872998	-4.511199	-1.779152	-4.890042	 13.096560	-101.478000	 1.740670	 90.353390	-2.894637	 61.655930	 5.595711	 7.904951	 15.985510	 0.291171	 1.715662	-15.665990	-30.523170	-6.580301	 5.266122	 0.000000	 0.000000	 0.000000	 0.000000	 0.000000	 0.000000	 0.000000	 0.089846	-3.783161	 0.005928	-0.022152	 0.782102	 3.244746	 101.796200	-0.213324	-89.955470	-2.904355	 65.609310	-5.697491	-7.485483	 11.249170	 2.039090	-18.345500	-0.860951	-28.104840	 15.208500	 5.323790	 0.000000	 0.000000	 0.000000	 0.000000	 0.000000	 0.000000	 0.000000
 0.000369	 1.271159	 0.063365	 0.369660	-0.007048	 179.993000	 177.518400	 1.627126	 17.830500	 2.830624	-13.121720	 0.068166	-2.142912	 72.180900	 4.049618	 1.292262	 28.425850	-2.713146	-177.158000	 1.387398	-17.785000	-2.501762	-11.986720	 0.003548	 2.307385	 71.396800	-4.262923	-1.288183	 28.361890	 2.710176	-0.070191	 2.567559	-8.613141	 1.886629	 4.314544	-4.502143	-1.720369	-5.458417	 13.009880	-101.478000	 1.740700	 90.353400	-3.453152	 61.569400	 6.115379	 7.982364	 16.071310	 0.227291	 2.306383	-15.941580	-30.244940	-6.580301	 5.266122	 0.000000	 0.000000	 0.000000	 0.000000	 0.000000	 0.000000	 0.000000	 0.089846	-3.783161	 0.005928	-0.020238	 0.720360	 3.218528	 101.796200	-0.213316	-89.955450	-1.702115	 64.949680	-6.808256	-8.402663	 12.535480	 2.242873	-18.704580	-1.358109	-28.312660	 15.208500	 5.323790	 0.000000	 0.000000	 0.000000	 0.000000	 0.000000	 0.000000	 0.000000
 0.000345	 1.271177	 0.063365	 0.379106	-0.007658	 179.992800	 177.526300	 1.628998	 17.831100	 2.831310	-13.124800	 0.068323	-2.140053	 72.182340	 4.046844	 1.292262	 28.425850	-2.713146	-177.157900	 1.372991	-17.784200	-2.494247	-11.951740	 0.005107	 2.305055	 71.378940	-4.263751	-1.288183	 28.361890	 2.710176	-0.045954	 2.424856	-8.506434	 1.843795	 4.806731	-4.475848	-1.648999	-6.095194	 12.866080	-101.478000	 1.740673	 90.353390	-4.079343	 61.473280	 6.696763	 8.074306	 16.161140	 0.143166	 3.000281	-16.244120	-29.816100	-6.580301	 5.266122	 0.000000	 0.000000	 0.000000	 0.000000	 0.000000	 0.000000	 0.000000	 0.089846	-3.783161	 0.005928	-0.018134	 0.653855	 3.177162	 101.796200	-0.213309	-89.955440	-0.365799	 64.081450	-8.037333	-9.594378	 14.178330	 2.540350	-19.083750	-2.022822	-28.543920	 15.208500	 5.323790	 0.000000	 0.000000	 0.000000	 0.000000	 0.000000	 0.000000	 0.000000
 0.000328	 1.271195	 0.063364	 0.385911	-0.008117	 179.992800	 177.533200	 1.628347	 17.831560	 2.830748	-13.122280	 0.068201	-2.137504	 72.180880	 4.044874	 1.292262	 28.425850	-2.713146	-177.159200	 1.360312	-17.783800	-2.487689	-11.921250	 0.006464	 2.301426	 71.363420	-4.262854	-1.288183	 28.361890	 2.710176	-0.024854	 2.298638	-8.383090	 1.799899	 5.242884	-4.437851	-1.580840	-6.660970	 12.696340	-101.478000	 1.740666	 90.353380	-4.634812	 61.389430	 7.211495	 8.159906	 16.234320	 0.057826	 3.645755	-16.504250	-29.330390	-6.580301	 5.266122	 0.000000	 0.000000	 0.000000	 0.000000	 0.000000	 0.000000	 0.000000	 0.089846	-3.783161	 0.005928	-0.016316	 0.597222	 3.129737	 101.796200	-0.213315	-89.955440	 0.773247	 63.214530	-9.078206	-10.779510	 15.778430	 2.870980	-19.409450	-2.695174	-28.743400	 15.208500	 5.323790	 0.000000	 0.000000	 0.000000	 0.000000	 0.000000	 0.000000	 0.000000
 0.000314	 1.271217	 0.063363	 0.391510	-0.009164	 179.992800	 177.540400	 1.625857	 17.831880	 2.828894	-13.114020	 0.067775	-2.134499	 72.176460	 4.043012	 1.292262	 28.425850	-2.713146	-177.161900	 1.347549	-17.783210	-2.480793	-11.889190	 0.007881	 2.298082	 71.347080	-4.262545	-1.288183	 28.361890	 2.710176	-0.002078	 2.158678	-8.213120	 1.744645	 5.725007	-4.378249	-1.500174	-7.289861	 12.459160	-101.478000	 1.740664	 90.353390	-5.253783	 61.298130	 7.783438	 8.259337	 16.307990	-0.049256	 4.399680	-16.781510	-28.669150	-6.580301	 5.266122	 0.000000	 0.000000	 0.000000	 0.000000	 0.000000	 0.000000	 0.000000	 0.089846	-3.783161	 0.005928	-0.014359	 0.536784	 3.064716	 101.796200	-0.213319	-89.955440	 1.964620	 62.155020	-10.157730	-12.232370	 17.691720	 3.321751	-19.766610	-3.529332	-28.956060	 15.208500	 5.323790	 0.000000	 0.000000	 0.000000	 0.000000	 0.000000	 0.000000	 0.000000
 0.000306	 1.271243	 0.063363	 0.394835	-0.009771	 179.992600	 177.547400	 1.619604	 17.832080	 2.825340	-13.098110	 0.066971	-2.129983	 72.168220	 4.040249	 1.292262	 28.425850	-2.713146	-177.166300	 1.335148	-17.782890	-2.474272	-11.858800	 0.009229	 2.294596	 71.331410	-4.262044	-1.288183	 28.361890	 2.710176	 0.019744	 2.018668	-8.004788	 1.681814	 6.211282	-4.298259	-1.413641	-7.926655	 12.165180	-101.478000	 1.740678	 90.353400	-5.879419	 61.209190	 8.360156	 8.363533	 16.372300	-0.170178	 5.203147	-17.044550	-27.866760	-6.580301	 5.266122	 0.000000	 0.000000	 0.000000	 0.000000	 0.000000	 0.000000	 0.000000	 0.089846	-3.783161	 0.005928	-0.012467	 0.478435	 2.985355	 101.796200	-0.213308	-89.955460	 3.068769	 60.991050	-11.146340	-13.844900	 19.749740	 3.878587	-20.125730	-4.464523	-29.158800	 15.208500	 5.323790	 0.000000	 0.000000	 0.000000	 0.000000	 0.000000	 0.000000	 0.000000
 0.000305	 1.271268	 0.063363	 0.395520	-0.010819	 179.992800	 177.553100	 1.612061	 17.831940	 2.820828	-13.077920	 0.065949	-2.127336	 72.157710	 4.039828	 1.292262	 28.425850	-2.713146	-177.171800	 1.325423	-17.782940	-2.468893	-11.833780	 0.010332	 2.289519	 71.318540	-4.259402	-1.288183	 28.361890	 2.710176	 0.037887	 1.894387	-7.786599	 1.619731	 6.642299	-4.208968	-1.332596	-8.494299	 11.854000	-101.478000	 1.740668	 90.353390	-6.437836	 61.133360	 8.874044	 8.459163	 16.420060	-0.288917	 5.957728	-17.260750	-27.031450	-6.580301	 5.266122	 0.000000	 0.000000	 0.000000	 0.000000	 0.000000	 0.000000	 0.000000	 0.089846	-3.783161	 0.005928	-0.010862	 0.428727	 2.902407	 101.796200	-0.213322	-89.955460	 3.960700	 59.877820	-11.931500	-15.412500	 21.681370	 4.475256	-20.445030	-5.380689	-29.329450	 15.208500	 5.323790	 0.000000	 0.000000	 0.000000	 0.000000	 0.000000	 0.000000	 0.000000
 0.000319	 1.271313	 0.063363	 0.391410	-0.012398	 179.993500	 177.561000	 1.594087	 17.831550	 2.810539	-13.031900	 0.063628	-2.123088	 72.133980	 4.040259	 1.292262	 28.425850	-2.713146	-177.183500	 1.312852	-17.783020	-2.461848	-11.800990	 0.011776	 2.280793	 71.301550	-4.254182	-1.288183	 28.361890	 2.710176	 0.055734	 1.745962	-7.481542	 1.535407	 7.157400	-4.077243	-1.229825	-9.175799	 11.414390	-101.478000	 1.740671	 90.353380	-7.106336	 61.050670	 9.486978	 8.573075	 16.456510	-0.444120	 6.917416	-17.487580	-25.868760	-6.580301	 5.266122	 0.000000	 0.000000	 0.000000	 0.000000	 0.000000	 0.000000	 0.000000	 0.089846	-3.783161	 0.005928	-0.009047	 0.371968	 2.786536	 101.796200	-0.213322	-89.955460	 4.904012	 58.454810	-12.740800	-17.466520	 24.106450	 5.332802	-20.828220	-6.591403	-29.517460	 15.208500	 5.323790	 0.000000	 0.000000	 0.000000	 0.000000	 0.000000	 0.000000	 0.000000
 0.000925	 1.271730	 0.063376	 0.178745	-0.025354	-179.997100	 177.563200	 1.273789	 17.813210	 2.636001	-12.248370	 0.025429	-2.090655	 71.733000	 4.080441	 1.292262	 28.425850	-2.713146	-177.359600	 1.356593	-17.797880	-2.477387	-11.873300	 0.008583	 2.202153	 71.333800	-4.177073	-1.288183	 28.361890	 2.710176	 0.022335	 0.783520	-3.163285	 0.539192	 10.581460	-1.798351	-0.347380	-13.830690	 4.876421	-101.478000	 1.740666	 90.353390	-11.674660	 60.965580	 13.615360	 9.362514	 15.786030	-2.136413	 16.167710	-16.898230	-9.917729	-6.580301	 5.266122	 0.000000	 0.000000	 0.000000	 0.000000	 0.000000	 0.000000	 0.000000	 0.089846	-3.783161	 0.005928	-0.000708	 0.069718	 1.162928	 101.796200	-0.213309	-89.955440	 6.580990	 44.351450	-12.552790	-43.978390	 45.196750	 21.798720	-22.369650	-22.432710	-30.303840	 15.208500	 5.323790	 0.000000	 0.000000	 0.000000	 0.000000	 0.000000	 0.000000	 0.000000
 0.001640	 1.271801	 0.063391	-0.099697	-0.023624	 179.995300	 177.467100	 0.993431	 17.794820	 2.492191	-11.599160	-0.004281	-2.035693	 71.404910	 4.078260	 1.292262	 28.425850	-2.713146	-177.492400	 1.575874	-17.815290	-2.587413	-12.384350	-0.014528	 2.239591	 71.589810	-4.177178	-1.288183	 28.361890	 2.710176	-0.164325	 0.670897	 1.373609	-0.346609	 11.028240	 0.907152	 0.177877	-14.447330	-2.262913	-101.478000	 1.740680	 90.353390	-12.065920	 61.796950	 13.874050	 9.624624	 14.041620	-3.684628	 21.534830	-12.961080	 5.652675	-6.580301	 5.266122	 0.000000	 0.000000	 0.000000	 0.000000	 0.000000	 0.000000	 0.000000	 0.089846	-3.783161	 0.005928	 0.000185	 0.040770	-0.520024	 101.796200	-0.213332	-89.955440	-0.021502	 33.496250	-2.220136	-77.121670	 53.972310	 48.645270	-16.013000	-41.453280	-29.328690	 15.208500	 5.323790	 0.000000	 0.000000	 0.000000	 0.000000	 0.000000	 0.000000	 0.000000
